<?xml version="1.0" encoding="UTF-8"?>
<svg xmlns="http://www.w3.org/2000/svg" xmlns:xlink="http://www.w3.org/1999/xlink" viewBox="0 0 211.15 114.72">
  <defs>
    <linearGradient id="linear-gradient" x1="1" y1="60.67" x2="153.62" y2="60.67" gradientUnits="userSpaceOnUse">
      <stop offset="0" stop-color="#3f0254"/>
      <stop offset=".43" stop-color="#400355"/>
      <stop offset=".59" stop-color="#470759"/>
      <stop offset=".7" stop-color="#530f60"/>
      <stop offset=".79" stop-color="#641a6b"/>
      <stop offset=".87" stop-color="#7a2978"/>
      <stop offset=".93" stop-color="#943a89"/>
      <stop offset=".99" stop-color="#b44f9c"/>
      <stop offset="1" stop-color="#b8529f"/>
    </linearGradient>
  </defs>
  <g id="Layer_1" data-name="Layer 1">
    <g>
      <path d="M211.15,70.43c-6.08,3.95-12.82,7.15-19.93,8.68-13.36,2.87-27.6-.72-35.75-12.39-2.34-3.35-3.92-7.26-6.34-10.55-3.75-5.09-7.88-6.67-13.96-7.17-1.24-.1-3.73.08-4.72-.16-.8-.2-1.04-.68-.82-1.45.5-1.74,1.73-1.86,3.22-2.41,13.95-5.19,28.33-7.25,41.92.23,13.02,7.16,21.87,20.66,36.39,25.23ZM207.39,70.83c-14.26-5.63-22.97-19.44-36.89-25.7-12.82-5.76-26.49-2.66-39.19,1.72l-.5.73,5.7.45c11.68,1.56,13.02,7.59,18.34,16.31,3.34,5.48,7.39,9.28,13.26,11.98,13.05,6,27.72,1.87,39.27-5.49Z" style="fill: #00a651;"/>
      <path d="M185.6,60.75c-2.96.32-5.95.8-8.63,2.18,3.68,2.59,7.47,5.1,11.63,6.86,1.49.63,3.06,1.06,4.56,1.64-3.46-.27-6.94-1.59-10.02-3.19l.04,2.48.69,3.5c-.91-1.3-1.42-3.01-1.71-4.57-.1-.53-.02-1.72-.39-2.05-3.65-2-7.04-4.42-10.38-6.9-.15,0-.2,1.67-.2,1.88-.01,1.11.15,2.22.26,3.32l1.22,4.17c-1.46-1.97-2.32-4.76-2.44-7.2-.04-.69.23-2.42.15-2.82-.03-.15-.07-.25-.2-.34-3.83-2.74-7.51-5.69-11.59-8.04l-.5,3.9-.07,3.49c-.13.01-.29-.76-.32-.92-.49-2.28-.45-4.68-.12-6.97-3.15-1.98-6.69-3.23-10.25-4.18,4.19.21,8.21,1.77,11.93,3.66,1.33-.39,2.58-.95,3.94-1.22.74-.15,3.51-.51,4.13-.35.06.02.18.11.11.17-2.38.38-4.68,1.08-6.88,2.04l6.56,4.29c2.38-.8,4.68-1.31,7.21-1.16.44.03,1.58.08,1.92.22.06.03.18.1.11.17-2.77.06-5.55.48-8.11,1.54l7.79,5.81c2.23-.96,4.65-1.57,7.08-1.64.8-.02,1.74,0,2.51.23Z" style="fill: #00a651;"/>
    </g>
  </g>
  <g id="Layer_3" data-name="Layer 3">
    <path d="M181.97,0c1.12,12.54-.71,26.39-9.57,35.97-4.49,4.86-10.22,8.29-16.76,9.54-6.39,1.23-13.73-.31-19.67,2.87-4.43,2.37-7.35,7.25-9.52,11.59-.41.59-1.17-.28-1.38-.67-.29-.52.21-3.31.32-4.07,1.88-13.17,6.03-25.65,17.08-33.94,12.16-9.12,28.4-10.66,39.51-21.3ZM162.96,15.78c-2.28,2.68-3.46,6.35-3.6,9.84l-8.56,4.39c-.22-.08.55-3.48.65-3.84.5-1.76,1.26-3.03,1.96-4.65.09-.2.06-.32-.14-.15-.38.34-1.37,1.92-1.67,2.44-1.18,2.05-1.86,4.36-2.11,6.71-2.19,1.39-4.58,2.51-6.69,4.05.07-2.64.59-5.28,1.55-7.74-.02-.09-.15-.02-.2.02-.19.2-.86,1.57-1.03,1.92-.92,2-1.52,4.38-1.54,6.59-3.72,2.73-7.23,5.96-9.38,10.1,2.03-2.43,4.25-4.71,6.8-6.61.4-.3,1.72-1.33,2.08-1.43s1.15.64,1.51.85c1.33.76,2.74,1.4,4.19,1.9l2.54.54c-2.43-1.19-4.9-2.37-7-4.11,3.58-2.37,7.45-4.21,11.31-6.04.41-.2.76-.69,1.28-.59.29.06,1.53.93,1.97,1.14,2.84,1.34,6.1,1.8,9.2,1.25-1.08-.24-2.19-.19-3.28-.37-2.41-.4-4.67-1.39-6.73-2.67,3.72-1.85,7.39-3.8,10.84-6.12.26-.07,1.99.61,2.43.72,1.59.4,3.24.54,4.88.47l-6.12-2.14c3.22-2.31,6.13-5.18,8.14-8.6l-4.08,4.03c-3.52,2.94-7.45,5.4-11.58,7.39.07-3.25,1.03-6.38,2.39-9.3Z" style="fill: #00a651;"/>
  </g>
  <g id="Layer_2" data-name="Layer 2">
    <path d="M137.49,58.82c6.44,4.5,9.78,2.05,13.11,5.98,7.26,8.59.8,31.47-13.12,38.93-8.26,4.43-17.25,2.4-20.25,1.77-49.84-10.44-110.81,17.53-115.96,4.84-2.5-6.15,12.16-11.89,34.93-37.43C67.76,37.54,78.55,4.95,91.7,7.79c1.09.24.86.43,12.33,10.52,16.71,14.7,16.31,13.51,18.63,16.45,8.88,11.28,6.2,18.02,14.84,24.06Z" style="fill: url(#linear-gradient); stroke: #58595b; stroke-miterlimit: 10; stroke-width: 2px;"/>
  </g>
</svg>