<?xml version="1.0" encoding="UTF-8"?>
<svg id="Layer_1" data-name="Layer 1" xmlns="http://www.w3.org/2000/svg" viewBox="0 0 220.21 61.42">
  <defs>
    <style>
      .cls-1 {
        isolation: isolate;
      }

      .cls-2 {
        fill: #fff;
      }
    </style>
  </defs>
  <g id="letters">
    <g class="cls-1">
      <g class="cls-1">
        <path class="cls-2" d="M38.04,44.48c0-1.64.06-3.16.18-4.57s.31-2.78.59-4.13c.27-1.35.6-2.71.97-4.1.37-1.39.83-2.88,1.38-4.48.35-1.09.91-2.42,1.67-3.98.76-1.56,1.68-3.04,2.75-4.42,1.07-1.39,2.29-2.57,3.63-3.54,1.35-.98,2.76-1.46,4.25-1.46h4.86s.17.03.38.09c.21.06.38.11.5.15,1.52.74,2.71,1.65,3.57,2.72.86,1.08,1.44,2.45,1.76,4.13.35,1.6.73,3.13,1.14,4.6s.62,3,.62,4.6c0,1.91-.05,3.81-.15,5.68-.1,1.88-.15,3.77-.15,5.68v.62c0,.29,0,.62.03.97.02.35.03.68.03,1v.59c.04.31.08.76.12,1.35.04.59.12,1.23.23,1.93s.23,1.43.35,2.17c.12.74.26,1.42.44,2.02.18.61.38,1.1.62,1.49.23.39.51.59.82.59,1.05,0,2.16-.14,3.31-.41,1.15-.27,2.2-.7,3.13-1.29.08-.08.26-.22.56-.44.29-.21.6-.45.94-.7.33-.25.64-.49.94-.7.29-.21.52-.38.67-.5.27-.2.5-.34.67-.44.18-.1.4-.15.67-.15.23,0,.45.07.64.21.19.14.29.34.29.62,0,.9-.5,1.74-1.49,2.52-1,.78-2.16,1.49-3.49,2.11-1.33.62-2.67,1.12-4.01,1.49-1.35.37-2.35.56-3.02.56-.86,0-1.59-.44-2.2-1.32-.61-.88-1.13-1.91-1.58-3.11-.45-1.19-.84-2.42-1.17-3.69-.33-1.27-.65-2.31-.97-3.13-.55,1.56-1.36,3.02-2.43,4.37-1.07,1.35-2.3,2.53-3.66,3.54-1.37,1.02-2.85,1.82-4.45,2.4-1.6.59-3.22.88-4.86.88-1.8,0-3.29-.36-4.48-1.08-1.19-.72-2.13-1.66-2.81-2.81-.68-1.15-1.15-2.48-1.41-3.98-.25-1.5-.38-3.04-.38-4.6ZM41.67,44.01c0,1.17.03,2.35.09,3.54.06,1.19.27,2.28.64,3.25.37.98.96,1.77,1.76,2.37.8.61,1.94.91,3.43.91,1.95,0,3.69-.44,5.21-1.32s2.85-2.03,3.98-3.46c1.13-1.43,2.09-3.07,2.87-4.92.78-1.85,1.41-3.75,1.88-5.68s.81-3.82,1.03-5.65c.21-1.84.32-3.48.32-4.92-1.02,0-1.52-.47-1.52-1.41,0-.59.12-1.1.35-1.55.23-.45.35-1.03.35-1.73,0-.86-.15-1.7-.44-2.52s-.72-1.56-1.29-2.23c-.57-.66-1.23-1.18-1.99-1.55-.76-.37-1.59-.56-2.49-.56-1.84,0-3.45.5-4.83,1.49-1.39,1-2.61,2.29-3.66,3.9-1.05,1.6-1.94,3.41-2.67,5.42-.72,2.01-1.31,4.04-1.76,6.09-.45,2.05-.77,4-.97,5.86-.2,1.86-.29,3.41-.29,4.66Z"/>
        <path class="cls-2" d="M82.1,47.76c-.23-.04-.48-.11-.73-.21-.25-.1-.48-.22-.67-.38.08-2.97.05-5.83-.09-8.58-.14-2.75-.21-5.62-.21-8.58,0-1.56.1-3.05.29-4.45.19-1.41.46-2.79.79-4.16.33-1.37.73-2.71,1.2-4.04.47-1.33.94-2.71,1.41-4.16.12-.35.18-.8.18-1.35s.04-1.08.12-1.61c.08-.53.22-.98.44-1.35.21-.37.63-.56,1.26-.56.35,0,.65.11.91.32.25.21.54.32.85.32.35,0,.73-.08,1.14-.23.41-.16.85-.33,1.32-.53.47-.2.95-.37,1.44-.53.49-.16.99-.23,1.49-.23,2.23,0,3.94.7,5.13,2.11,1.19,1.41,1.79,3.18,1.79,5.33,0,.39-.07.88-.21,1.46-.14.59-.19,1.05-.15,1.41-.31,1.76-.81,3.45-1.49,5.07-.68,1.62-1.51,3.17-2.49,4.66,2.19.16,4.2.67,6.04,1.52,1.84.86,3.44,1.98,4.8,3.37,1.37,1.39,2.43,3.03,3.19,4.92.76,1.9,1.14,3.96,1.14,6.18,0,1.91-.28,3.7-.85,5.36-.57,1.66-1.39,3.09-2.46,4.28-1.07,1.19-2.39,2.13-3.96,2.81-1.56.68-3.34,1.03-5.33,1.03-1.88,0-3.57-.21-5.1-.62s-2.94-1-4.25-1.79c-1.31-.78-2.53-1.74-3.66-2.87-1.13-1.13-2.23-2.44-3.28-3.93ZM82.69,30.88c-.16,0-.23.1-.23.29s.08.29.23.29.23-.1.23-.29-.08-.29-.23-.29ZM84.8,46.24c.04.08.08.16.12.23.04.08.08.14.12.18.04.12.15.29.32.53l.53.7c.18.23.34.45.5.64.16.2.23.31.23.35,1.44,1.64,3.06,2.91,4.83,3.81,1.78.9,3.76,1.35,5.95,1.35,3.36,0,5.85-.97,7.47-2.9,1.62-1.93,2.43-4.52,2.43-7.76,0-1.91-.28-3.65-.85-5.21-.57-1.56-1.4-2.91-2.49-4.04-1.09-1.13-2.4-2-3.93-2.61-1.52-.61-3.18-.91-4.98-.91-.47,0-.87.1-1.2.29-.33.2-.64.4-.94.62-.29.21-.6.42-.91.62-.31.2-.66.29-1.05.29-.47,0-.82-.18-1.05-.53s-.35-.76-.35-1.23c0-.59.14-1.06.41-1.44.27-.37.62-.71,1.03-1.03.41-.31.82-.62,1.23-.94.41-.31.75-.7,1.03-1.17.16-.27.34-.61.56-1,.21-.39.43-.78.64-1.17.21-.39.48-.9.79-1.52.08-.27.21-.72.38-1.35.18-.62.36-1.28.56-1.96.19-.68.37-1.35.53-1.99.16-.64.25-1.08.29-1.32v-.41c0-1.29-.31-2.4-.94-3.34-.63-.94-1.62-1.41-2.99-1.41-.39,0-.86.09-1.41.26-.55.18-1.09.4-1.64.67-.55.27-1.04.61-1.46,1-.43.39-.66.8-.7,1.23l-2.29,16.52v.59c0,.23-.04.65-.12,1.26-.08.61-.16,1.33-.23,2.17-.08.84-.17,1.71-.26,2.61-.1.9-.19,1.77-.26,2.61-.08.84-.15,1.56-.21,2.17-.06.61-.09,1.03-.09,1.26v.12c0,.27.15.54.44.79.29.25.44.58.44.97v.35c-.04.08-.14.23-.29.44-.16.21-.25.36-.29.44l.12.18Z"/>
        <path class="cls-2" d="M139.06,49.46c-1.05.7-2.17,1.4-3.34,2.08-1.17.68-2.39,1.29-3.66,1.82-1.27.53-2.55.96-3.84,1.29-1.29.33-2.6.5-3.93.5-1.56,0-2.83-.41-3.81-1.23-.98-.82-1.76-1.84-2.34-3.05-.59-1.21-1.05-2.51-1.41-3.9-.35-1.39-.72-2.65-1.11-3.78-.16-.47-.37-.84-.64-1.11-.27-.27-.56-.55-.85-.82-.29-.27-.55-.59-.76-.94-.22-.35-.32-.78-.32-1.29,0-.39.22-.75.67-1.08.45-.33.83-.5,1.14-.5.35,0,.69.16,1.03.47.33.31.73.65,1.2,1.03.47.37,1,.7,1.58,1s1.27.44,2.05.44c.51,0,1.09,0,1.76-.03.66-.02,1.23-.11,1.7-.26.35-.16.55-.28.59-.38.04-.1.05-.18.03-.26-.02-.08,0-.14.09-.18.08-.04.33-.06.76-.06.31,0,.67.03,1.08.09s.79.18,1.14.35.63.41.85.7c.21.29.32.64.32,1.03,0,.7-.23,1.13-.7,1.29-.47.16-1,.25-1.58.29h-1.52c-.74,0-1.52.02-2.34.06-.82.04-1.59.08-2.31.12-.72.04-1.24.06-1.55.06.16.74.35,1.63.59,2.67.23,1.04.55,2.01.94,2.93.39.92.93,1.7,1.61,2.34.68.64,1.53.97,2.55.97,1.21,0,2.4-.15,3.57-.44s2.3-.68,3.4-1.17c1.09-.49,2.16-1.04,3.19-1.67,1.03-.62,2.04-1.25,3.02-1.88.16-.16.24-.27.26-.35.02-.08.03-.21.03-.41,0-1.44-.15-2.91-.44-4.39-.29-1.48-.44-3.01-.44-4.57,0-1.02.08-2.32.23-3.93.16-1.6.41-3.29.76-5.07.35-1.78.82-3.58,1.41-5.42.59-1.84,1.32-3.5,2.2-4.98.88-1.48,1.9-2.67,3.08-3.57,1.17-.9,2.54-1.35,4.1-1.35.7,0,1.28.2,1.73.59.45.39.82.92,1.11,1.58.29.67.52,1.39.67,2.17.16.78.27,1.56.35,2.34.08.78.12,1.49.12,2.14v1.49c0,1.64-.13,3.32-.38,5.04-.25,1.72-.63,3.4-1.11,5.04-.49,1.64-1.11,3.23-1.88,4.78-.76,1.54-1.65,2.98-2.67,4.31-.78,1.02-1.61,1.88-2.49,2.61-.88.72-1.77,1.55-2.67,2.49.43,1.68,1.02,3.13,1.76,4.37.74,1.23,1.78,2.33,3.11,3.31.16.16.24.27.26.35.02.08.03.23.03.47,0,.39-.11.65-.32.79-.22.14-.5.21-.85.21-.66,0-1.2-.11-1.61-.32-.41-.21-.78-.48-1.11-.79-.33-.31-.65-.65-.97-1.03-.31-.37-.66-.71-1.05-1.03l-2.05-4.34ZM140.41,36.86v1.7c0,.51.02,1,.06,1.46.04.47.08.96.12,1.46.04.51.1,1.08.18,1.7.04.2.1.43.18.7.08.27.14.41.18.41h.23s.18-.11.41-.32c.23-.21.5-.47.79-.76s.6-.61.91-.94c.31-.33.57-.62.76-.85,2.19-2.5,3.74-5.28,4.66-8.35.92-3.07,1.38-6.28,1.38-9.64v-.7c0-.35-.01-.73-.03-1.14-.02-.41-.03-.79-.03-1.14v-.7c-.04-.12-.09-.34-.15-.67-.06-.33-.15-.67-.26-1.03s-.22-.69-.29-1.03c-.08-.33-.14-.56-.18-.67-.04-.08-.09-.18-.15-.29s-.09-.21-.09-.29c-1.17.12-2.19.6-3.05,1.44-.86.84-1.62,1.9-2.29,3.19-.66,1.29-1.2,2.72-1.61,4.28-.41,1.56-.75,3.11-1.03,4.63-.27,1.52-.46,2.95-.56,4.28-.1,1.33-.15,2.42-.15,3.28Z"/>
        <path class="cls-2" d="M197.3,53.79v-.59c0-.27,0-.56-.03-.85s-.03-.59-.03-.88v-.62c0-2.7.21-5.39.62-8.09s.71-5.43.91-8.2c.16-2.81.28-5.63.38-8.47.1-2.83.15-5.67.15-8.53,0-.59,0-1.33.03-2.23.02-.9-.05-1.77-.21-2.61-.16-.84-.46-1.55-.91-2.14s-1.14-.88-2.08-.88c-1.68,0-3.17.32-4.48.97s-2.49,1.49-3.54,2.55-2,2.27-2.84,3.63c-.84,1.37-1.61,2.75-2.31,4.16s-1.37,2.79-1.99,4.16c-.62,1.37-1.27,2.6-1.93,3.69l-1.7,9.2v.23c-.08.31-.18.75-.29,1.32-.12.57-.23,1.12-.35,1.67-.12.55-.23,1.04-.35,1.46-.12.43-.18.67-.18.7-.04.16-.21.65-.5,1.49-.29.84-.62,1.77-1,2.78-.37,1.02-.73,2.04-1.08,3.08-.35,1.04-.63,1.81-.82,2.31-.27.7-.59,1.12-.94,1.26-.35.14-.86.21-1.52.21-.31,0-.61-.03-.88-.09-.27-.06-.41-.28-.41-.67,0-2.19.26-4.29.79-6.3.53-2.01,1.14-3.98,1.85-5.92s1.41-3.88,2.11-5.83c.7-1.95,1.21-3.96,1.52-6.04l2.58-15.18v-5.86l-11.43,5.86c-1.02.55-2.2.98-3.54,1.29-1.35.31-2.57.47-3.66.47-1.02,0-1.78-.17-2.29-.5-.51-.33-.76-1.03-.76-2.08,0-.51.16-.88.47-1.11.31-.23.68-.35,1.11-.35.31,0,.56.06.73.18s.34.25.5.41c.16.16.32.29.5.41s.42.18.73.18c1.29,0,2.6-.21,3.93-.64,1.33-.43,2.63-.97,3.9-1.61,1.27-.64,2.51-1.33,3.72-2.05,1.21-.72,2.38-1.4,3.52-2.02.55-.27,1.08-.58,1.61-.91.53-.33,1.1-.5,1.73-.5.59,0,1.07.2,1.46.59.39.39.7.87.94,1.44.23.57.39,1.15.47,1.76.08.61.12,1.12.12,1.55v.12c-.04.16-.1.53-.18,1.11s-.17,1.21-.26,1.88c-.1.67-.19,1.3-.26,1.9-.08.61-.12.97-.12,1.08,0,.04,0,.18-.03.41s-.03.39-.03.47,0,.21.03.41c.02.2.03.33.03.41.78-1.48,1.72-2.96,2.81-4.42s2.31-2.78,3.66-3.96,2.83-2.12,4.45-2.84c1.62-.72,3.35-1.08,5.19-1.08,1.37,0,2.46.42,3.28,1.26.82.84,1.44,1.85,1.85,3.02s.67,2.41.79,3.72c.12,1.31.18,2.45.18,3.43,0,2.73-.12,5.47-.35,8.2-.23,2.73-.5,5.46-.79,8.17-.29,2.72-.56,5.44-.79,8.17-.23,2.73-.35,5.45-.35,8.14,0,.31,0,.76-.03,1.35s.11,1.08.38,1.46h.29c.08-.04.24-.09.5-.15l.76-.18c.25-.06.51-.11.76-.15.25-.04.44-.08.56-.12.23-.16.69-.44,1.38-.85s1.41-.84,2.17-1.29c.76-.45,1.47-.88,2.14-1.29s1.13-.69,1.41-.85c.31-.23.72-.62,1.23-1.17.51-.55,1.04-1.17,1.61-1.88s1.14-1.44,1.73-2.2,1.12-1.46,1.61-2.11.93-1.16,1.32-1.55c.39-.39.66-.59.82-.59.35,0,.59.13.7.38.12.25.18.52.18.79,0,1.13-.38,2.32-1.14,3.57-.76,1.25-1.76,2.48-2.99,3.69-1.23,1.21-2.61,2.38-4.13,3.52-1.52,1.13-3.05,2.13-4.57,2.99-1.52.86-2.98,1.54-4.37,2.05-1.39.51-2.53.76-3.43.76-.35,0-.66-.12-.94-.35s-.5-.51-.67-.82c-.18-.31-.32-.64-.44-1s-.2-.66-.23-.94Z"/>
      </g>
    </g>
  </g>
  <g id="bullseye">
    <g>
      <circle class="cls-2" cx="150.03" cy="5.87" r="5.87"/>
      <path class="cls-2" d="M150.03,9.88c-2.21,0-4.01-1.8-4.01-4.01s1.8-4.01,4.01-4.01,4.01,1.8,4.01,4.01-1.8,4.01-4.01,4.01ZM150.03,2.86c-1.66,0-3.01,1.35-3.01,3.01s1.35,3.01,3.01,3.01,3.01-1.35,3.01-3.01-1.35-3.01-3.01-3.01Z"/>
      <path class="cls-2" d="M150.03,7.76c-1.04,0-1.89-.85-1.89-1.89s.85-1.89,1.89-1.89,1.89.85,1.89,1.89-.85,1.89-1.89,1.89ZM150.03,4.98c-.49,0-.89.4-.89.89s.4.89.89.89.89-.4.89-.89-.4-.89-.89-.89Z"/>
    </g>
  </g>
  <g id="arrow">
    <g>
      <path class="cls-2" d="M105.9,19.97l.13-.95c.04-.26.07-.48.1-.7,0-.02,0-.04.02-.06-.04-.07-.07-.15-.07-.24-.02-.32.21-.59.53-.62l7.74-.61-8.45,3.18Z"/>
      <path class="cls-2" d="M12.96,40.77c-.23,0-.43-.16-.49-.39-.06-.27.11-.54.38-.6l94.47-21.43c.27-.06.54.11.6.38.06.27-.11.54-.38.6L13.07,40.76s-.07.01-.11.01Z"/>
    </g>
  </g>
  <g id="leg">
    <g>
      <path class="cls-2" d="M22.88,49.59c-.86-1.16-1.69-2.47-2.51-3.9-.24.43-.66.75-1.22.86-.32.3-.75.49-1.31.49-.53,0-.94-.17-1.26-.44-.31.51-.83.88-1.61.88-.13,0-.24-.02-.35-.03-.05.6-.11,1.22-.22,1.86-.19,1.15-.43,2.32-.74,3.52-.31,1.2-.63,2.37-.98,3.52-.35,1.15-.72,2.19-1.09,3.13,0,.66.2,1.05.6,1.2.4.14.88.21,1.44.21.75,0,1.39-.43,1.93-1.3.54-.87.98-1.87,1.34-3.02.35-1.15.61-2.3.77-3.45s.29-2,.39-2.57h.35c1.3,2.28,5.4,8.9,7.34,10.34.7-1.23,4.43,1.03,5.42,0-1.04-.9-7.42-10.1-8.3-11.29h0Z"/>
      <path class="cls-2" d="M30.31,61.42c-.57,0-1.26-.17-1.94-.34-1-.25-2.14-.53-2.41-.06-.04.06-.1.11-.17.12-.07.02-.14,0-.2-.04-2.04-1.52-6.23-8.38-7.33-10.28-.1.57-.21,1.36-.35,2.35-.16,1.14-.42,2.31-.78,3.49-.37,1.19-.82,2.2-1.37,3.08-.58.94-1.31,1.42-2.14,1.42-.58,0-1.1-.08-1.52-.22-.51-.19-.77-.67-.77-1.44,0-.03,0-.06.02-.09.4-1.01.76-2.06,1.08-3.11.32-1.05.63-2.16.98-3.51.29-1.14.53-2.28.74-3.5.11-.64.17-1.26.22-1.84,0-.07.04-.13.09-.17s.12-.06.18-.06h.11c.07.02.14.03.22.03.62,0,1.09-.26,1.4-.76.04-.06.1-.1.17-.12.07-.01.15,0,.2.06.3.26.66.38,1.1.38.46,0,.84-.14,1.14-.42.03-.03.08-.05.12-.06.46-.09.84-.35,1.05-.74.04-.08.13-.13.22-.13h0c.09,0,.17.05.22.13.87,1.52,1.69,2.79,2.49,3.88.02.02.03.05.04.08.23.32.72,1.01,1.36,1.91,2.13,3.01,6.09,8.61,6.86,9.28.05.04.08.11.09.18,0,.07-.02.14-.07.19-.25.26-.61.35-1.04.35ZM26.61,60.26c.54,0,1.2.16,1.88.33.85.21,1.79.44,2.29.26-1.04-1.15-3.99-5.28-6.71-9.14-.68-.96-1.19-1.68-1.4-1.96-.02-.02-.03-.05-.04-.07-.74-1.01-1.49-2.16-2.28-3.52-.28.31-.65.53-1.08.63-.39.34-.87.51-1.43.51-.45,0-.85-.11-1.2-.34-.31.39-.83.78-1.67.78-.04,0-.08,0-.12,0-.05.52-.1,1.07-.2,1.63-.2,1.23-.45,2.39-.74,3.54-.35,1.35-.66,2.48-.98,3.53-.32,1.05-.68,2.09-1.08,3.1.01.68.25.85.44.92.37.13.82.19,1.35.19.66,0,1.22-.39,1.72-1.18.52-.84.95-1.81,1.31-2.96.35-1.15.61-2.3.76-3.41.16-1.12.29-1.99.39-2.58.02-.12.12-.21.25-.21h.35c.09,0,.17.05.22.13,1.24,2.18,5.13,8.45,7.08,10.11.22-.2.53-.28.9-.28Z"/>
    </g>
  </g>
  <g id="bow">
    <g>
      <path class="cls-2" d="M10.67,23.68c.68-.3,1.39-.56,2.14-.77.4-.11.8-.19,1.2-.24,1.59-.43,3.37-.4,5,0h.34c1.12,0,2.3.2,3.52.6,1.22.4,2.36.96,3.41,1.69,1.05.73,1.92,1.61,2.6,2.64.68,1.03,1.02,2.18,1.02,3.45,0,1.97-.43,3.69-1.3,5.17-.87,1.48-1.98,2.8-3.34,3.97-1.36,1.17-2.86,2.19-4.5,3.06-1.64.87-3.23,1.65-4.78,2.36,0,.03-.08.08-.19.13.18.74-.02,1.57-.59,2.07.39.35.61.85.65,1.37.94-.39,2.1-.92,3.48-1.57,1.43-.68,2.98-1.52,4.64-2.53s3.21-2.17,4.64-3.48c1.43-1.31,2.62-2.8,3.59-4.46.96-1.66,1.44-3.53,1.44-5.59,0-2.2-.48-4.1-1.44-5.7-.96-1.59-2.2-2.88-3.73-3.87-1.52-.98-3.23-1.7-5.13-2.14-1.9-.44-3.79-.67-5.66-.67-.98,0-1.84.01-2.57.04-.73.02-1.47.08-2.21.18-.75.09-1.52.24-2.32.42-.8.19-1.73.47-2.81.84-.42.28-1.05.53-1.9.74s-1.69.45-2.53.7c-.84.26-1.57.53-2.18.81-.61.28-.91.66-.91,1.12,0,.94.47,1.41,1.41,1.41h.35c.09-.05.3-.11.63-.18.33-.07.68-.13,1.05-.18.37-.05.73-.12,1.05-.21.33-.09.56-.16.7-.21l5.24-.95v-.02Z"/>
      <path class="cls-2" d="M15.85,49.43s-.09-.01-.13-.04c-.07-.04-.11-.11-.12-.19-.04-.48-.24-.91-.57-1.2-.05-.05-.08-.12-.08-.19s.03-.14.08-.19c.48-.42.68-1.14.51-1.82-.03-.12.03-.24.14-.29.04-.02.07-.04.09-.04.02-.04.06-.07.1-.08,1.61-.74,3.21-1.53,4.77-2.35,1.62-.86,3.11-1.88,4.45-3.03,1.33-1.14,2.44-2.46,3.29-3.91.84-1.43,1.27-3.12,1.27-5.04,0-1.21-.33-2.33-.98-3.31-.66-.99-1.51-1.86-2.53-2.57-1.01-.7-2.14-1.26-3.35-1.66-1.19-.39-2.35-.59-3.44-.59h-.34c-1.71-.41-3.44-.41-4.93,0-.42.06-.82.13-1.2.24-.68.19-1.34.43-2.01.72-.04.04-.09.07-.14.08l-5.24.95c-.1.04-.34.11-.68.21-.32.09-.68.16-1.08.22-.36.05-.71.11-1.03.18-.42.09-.54.14-.56.15-.04.02-.08.03-.12.03h-.35c-1.07,0-1.66-.59-1.66-1.66,0-.39.18-.95,1.06-1.35.61-.28,1.35-.56,2.21-.82.69-.21,1.61-.47,2.54-.7.81-.2,1.42-.44,1.82-.71.02-.01.04-.02.06-.03,1.11-.38,2.04-.66,2.83-.85.93-.21,1.67-.34,2.35-.42.74-.1,1.49-.16,2.23-.18.67-.03,1.49-.04,2.58-.04,1.85,0,3.78.23,5.72.68,1.9.44,3.66,1.17,5.21,2.17,1.55,1,2.83,2.33,3.81,3.95.98,1.63,1.48,3.59,1.48,5.83,0,2.1-.5,4.02-1.47,5.72-.99,1.7-2.21,3.22-3.64,4.52-1.43,1.31-3,2.49-4.68,3.51-1.62.99-3.19,1.84-4.66,2.54-1.56.74-2.64,1.22-3.49,1.58-.03.01-.06.02-.1.02ZM15.55,47.81c.25.28.42.63.5,1.01.8-.34,1.8-.79,3.17-1.44,1.45-.69,3.01-1.54,4.62-2.52,1.65-1,3.2-2.17,4.6-3.45,1.39-1.27,2.58-2.75,3.54-4.4.93-1.61,1.41-3.45,1.41-5.46,0-2.14-.47-4.02-1.4-5.57-.94-1.55-2.17-2.83-3.65-3.79-1.5-.97-3.2-1.68-5.05-2.11-1.9-.44-3.79-.66-5.6-.66-1.08,0-1.89.01-2.56.04-.73.02-1.46.08-2.19.18-.66.08-1.39.21-2.3.42-.77.18-1.67.45-2.75.82-.45.29-1.11.55-1.95.76-.93.23-1.83.49-2.52.7-.83.26-1.56.53-2.15.8-.51.24-.76.53-.76.89,0,.8.36,1.16,1.16,1.16h.29c.1-.04.27-.1.64-.17.34-.07.69-.13,1.07-.18.38-.05.72-.12,1.02-.2.32-.09.55-.16.68-.2l5.18-.94s.02-.02.04-.02c.71-.31,1.44-.58,2.17-.78.41-.11.82-.2,1.24-.25,1.54-.42,3.36-.42,5.09,0h.28c1.15,0,2.36.2,3.6.6,1.25.41,2.42.99,3.47,1.72,1.08.75,1.98,1.66,2.67,2.71.7,1.07,1.06,2.27,1.06,3.59,0,2.01-.45,3.79-1.33,5.3-.88,1.5-2.02,2.85-3.39,4.03-1.37,1.18-2.9,2.22-4.55,3.09-1.54.82-3.13,1.6-4.73,2.34-.02.02-.05.04-.08.06.12.71-.08,1.44-.52,1.94Z"/>
    </g>
  </g>
  <g id="hand">
    <g>
      <path class="cls-2" d="M8.93,41.68c2.04,0,1.42-.34,2.66-.36.04-.06-.23-.74-.17-.8-.34-.39-1.74-.43-1.21-.73-.59-.24-2.8-1.68-3.45-1.87-.72-.21-1.47-.34-2.27-.37-1.12-.05-1.83.07-2.13.35-.29.29-.45.67-.47,1.15-.02.43.14.81.48,1.12.34.32.76.58,1.27.78.51.2,1.12.37,1.84.5.2.04.4.07.6.1.07-.19,2.61.26,2.86.13h0Z"/>
      <ellipse class="cls-2" cx="11.6" cy="40.49" rx="1.84" ry="1.34"/>
    </g>
  </g>
  <g id="face">
    <path class="cls-2" d="M19.42,33.46c-.22-.32-2.92-4.06-6.45-3.62-.48.06-1.09.21-1.75.57-.29.16-.65.41-.93.83-.91,1.36-.05,3.09,0,3.19.53.65,1.07,1.3,1.6,1.95l1.84,2.02c-.11.05-.24.15.05.06l3.44-.67c.39-.13.77-.2,1.13-.21l-.1-.14c.12-.6.24-1.21.36-1.81-.3-.48-.6-.97-.9-1.45.57-.24,1.14-.47,1.71-.71h0ZM14.91,32.77c-.94,0-.93-1,0-1s.93,1,0,1Z"/>
  </g>
  <g id="string">
    <g>
      <path class="cls-2" d="M16.33,45.94c-.08,0-.17-.04-.21-.12l-3.37-5.42c-.07-.12-.04-.27.08-.34.12-.07.27-.04.34.08l3.37,5.42c.07.12.04.27-.08.34-.04.03-.09.04-.13.04Z"/>
      <path class="cls-2" d="M12.96,40.52c-.08,0-.16-.04-.2-.11L2.03,25.08c-.08-.11-.05-.27.06-.35.11-.08.27-.05.35.06l10.73,15.33c.08.11.05.27-.06.35-.04.03-.09.05-.14.05Z"/>
    </g>
  </g>
</svg>